<?xml version="1.0" encoding="utf-8"?>
<!-- Generator: Adobe Illustrator 19.2.1, SVG Export Plug-In . SVG Version: 6.00 Build 0)  -->
<svg version="1.1" id="Layer_1" xmlns="http://www.w3.org/2000/svg" xmlns:xlink="http://www.w3.org/1999/xlink" x="0px" y="0px"
	 viewBox="0 0 30 30" style="enable-background:new 0 0 30 30;" xml:space="preserve">
<style type="text/css">
	.st0{fill:#451500;}
	.st1{fill:#FFFFFF;}
</style>
<g>
	<path class="st0" d="M30,24c0,3.3-2.7,6-6,6H6c-3.3,0-6-2.7-6-6V6c0-3.3,2.7-6,6-6h18c3.3,0,6,2.7,6,6V24z"/>
</g>
<path class="st1" d="M20.9,3.4c0.2,0,1.1,0.3,1.1,0.3s0.9,1.2,1.1,1.5c0.2,0.3,0.1,0.5,0.1,0.5l-0.4,1.5c0,0,0.2,0.1,0,0
	s-1.3,0-1.5,0c-0.3,0,0.2-0.3,0.4-0.4c0.1-0.1,0.6-0.5,0.5-0.7c-0.1-0.2-0.8-1.6-0.8-1.6s-1.3,0-1.9,0.1c-0.6,0.1-1.9,1.3-1.9,1.3
	l-0.5,1.8c0,0,0.2,0.3,0.5,0.6c0.3,0.2,1,0.1,1.3,0.1c0.3,0,0.2,0.3-0.1,0.5c-0.2,0.2-1.1,0.2-1.1,0.2L18,9.3
	c0.4,0.4,1.1,2.2,1.6,2.7c0.4,0.4,0,2.6-0.6,3.2c-0.6,0.6-0.9,2-1.3,2.3c-0.4,0.4-0.8,0.2-0.4,0.6c0.4,0.4,0.2,0.9,0.3,1.2
	c0,0.2,0.1,0.6,0.3,0.8c0.2,0.2,3.1,2.2,4.2,2.3c0.2,0,0.2,1-1,2.3c0,0-0.2,0.7-2.2,0.8c-2.2,0.1-4.3-0.3-4.8-0.3
	c-0.5,0-1.9-0.8-1.9-0.8c-0.3,0-4.5-6.3-4.5-6.7c0-0.4-0.3-1.6-0.3-2c0-0.4,0.5-4.4,0.4-4.9C7.8,10.4,8,10.3,8.5,9.9
	C8.9,9.5,9.7,8.7,10,8.4c0.1-0.1,1.2-0.1,2.4-0.4L12.6,8l-0.2-0.1c0,0-0.4-0.5-1.1-0.5c-0.7,0-0.9,0.1-0.5-0.1
	c0.3-0.1,0.9-0.6,0.9-0.6l1.4,0.6h0.8l1.4-1.1l3.1-2.5L20.9,3.4 M11.4,11.2c-0.4,0.1-0.9,0-1.2,0.5L9.6,14c0,0,0.1,2.3,0.1,2.7
	c0.1,0.5,0.6,1.9,1,2.3c0.3,0.3,0.6,1.3,1.1,1.8c0.1,0.1,0.4,0.2,0.5,0.4c0.2,0.3,0.4,0.1,0-0.5c-1.4-2.1-1.7-3.9-1.8-4.2
	c-0.1-0.7,0-2.2,0-2.9c0-0.3,0.3-1.1,0.5-1.2c0.1-0.1,1.1-0.2,1.3-0.2c0.3-0.1,0.7-0.1,1-0.1c0.9-0.2,2.2,0.3,2.3,0.3
	c1.3,0.6,0.8,0.8,0.8,0.9c0,0.1-1.8,3.8-1.8,4c0,0.2,0.1,2.1,0.3,2.6c0.1,0.2,0.6,1.6,0.7,1.8c0.5,1.1-1-0.2-1.1-0.2
	c-0.1-0.1-1.7-3.4-2-4.1c-0.2-0.5-0.1-1.2-0.1-1.3c0.1-0.2-0.1-1.8,0.2-2c0.2-0.1,0.8-0.2,1.2,0c0.4,0.2,0.6,0.6,0.6,0.7
	c0,0.1-0.7,2.1-0.8,1.9c0-0.1,0-0.7-0.1-0.8c-0.1-0.1-0.2-0.2-0.3-0.1c-0.1,0.1-0.2,0.8-0.1,1c0.3,1.1,0.6,0.8,0.8,0.6
	c0.2-0.3,1.1-2.8,1.1-3c0-0.4-0.3-1-0.9-1.2c-0.3-0.1-1.5-0.1-1.9,0.2c-0.6,0.3-0.6,3.2-0.5,3.6c0.1,0.4,1.8,3.8,1.9,4
	c0.2,0.5,1.4,1.7,1.6,1.8c0.1,0,1.7,0.7,1.9,0.4c0.1-0.1,0-0.5-0.4-0.8c-0.4-0.3-1.3-3-1.3-3.2c0-0.2-0.2-1.7-0.1-2
	c0.3-0.6,2.6-4,2.3-4.2c-0.3-0.4-1.3-2.1-1.8-1.4c-0.4,0.6-2.1,0-2.6-0.4C13.1,10.9,11.9,11.2,11.4,11.2z M17.9,24.2
	c0.7,0,2.5-1,1.8-1.4c-0.4-0.3-0.9-0.7-1.8-1.4c-0.4-0.3-0.6-0.2-0.7-0.2c-0.4,0,0.2-0.6,0-1.1c-0.2-0.5-0.4-1.4-0.5-1.6
	c-0.2-0.2-0.1-1.2,0.3-1.6c0.4-0.4,1.1-1.7,1.4-2.2c0.4-0.6,0.7-1.8,0.5-2c-0.2-0.2-0.9-1.7-1.2-2c-0.2-0.2-0.6-0.7-0.9-1.1l0,0
	l-0.1-0.1c0,0,0,0-0.4,0.2c-0.3,0.2-0.8,0.6-0.8,0.6s-0.3,0.1-1,0c-0.4-0.1-0.5-0.3-0.5-0.6c0-0.3-0.2-0.2-0.2-0.2s-3.2,0.2-3.5,0.3
	c-0.3,0.1-1.4,1.7-1.4,1.7s-0.6,5.8-0.1,6.3c0.6,0.6,3.1,5.1,3.7,5.6C13,24,17.2,24.2,17.9,24.2z"/>
</svg>
