<svg id="Layer_1" data-name="Layer 1" xmlns="http://www.w3.org/2000/svg" viewBox="0 0 41.01 53.04"><defs><style>.cls-1{fill:#cac4c0;}</style></defs><title>empty-bag-background</title><path class="cls-1" d="M41,49.12C40.5,41,37.92,16,37,10.12a4.19,4.19,0,0,0-2.22-1H31c-0.05-.45-0.1-0.9-0.18-1.33C30.3,4.67,30.83-.4,20.07,0,12.76,0.32,10,1.52,9.66,9.16l-4.71,0c-0.78,0-1.73.26-2,2.17L2.21,16.43S1.15,26.54.67,35.57C0.3,42.53,0,49.19,0,49.4c0.1,2.36,4.12,2.89,5.8,3.4A5.68,5.68,0,0,0,8.25,53c10-.44,30.35-1.44,31.52-1.54S41,49.72,41,49.12ZM5,50.92c-2.37-.67-3-1.79-2.93-4,0-2,1.05-28.35,1.58-28.19,0.72-.1,2.36,30.79,2.39,31.49A0.77,0.77,0,0,1,5,50.92ZM19.77,2.48c8.91-.47,8.11,3.58,8.66,5.9,0.06,0.26.1,0.53,0.14,0.8H12.38C12.66,3.47,13.83,2.79,19.77,2.48Zm9.65,40s-0.18.86-2.31,1.05a41.33,41.33,0,0,1-5.16,0,7.57,7.57,0,0,1-2.11-.83,55,55,0,0,1-5.27-7.58c0-.51-0.45-1.86-0.48-2.37s0.25-5.19.13-5.74,0.11-.55.55-1.09,1.23-1.44,1.53-1.81c0.14-.16,1.26-0.19,2.59-0.58l0.2-.11-0.28-.13a1.47,1.47,0,0,0-1.17-.5c-0.7.07-.94,0.14-0.58-0.05a7.25,7.25,0,0,0,1-.77l1.58,0.65,0.84,0,1.39-1.39L25,18l2.75-.6a11.31,11.31,0,0,1,1.19.32s1,1.41,1.25,1.71a0.55,0.55,0,0,1,.16.53L30,21.8a5.32,5.32,0,0,0-1.67.1c-0.29,0,.24-0.39.36-0.53a1.57,1.57,0,0,0,.54-0.8c-0.08-.22-1-1.84-1-1.84s-1.38.06-2,.18a6.47,6.47,0,0,0-1.94,1.69l-0.38,2.18a2.55,2.55,0,0,0,.53.63,2.53,2.53,0,0,0,1.45.06c0.31,0,.2.36,0,0.63a2.52,2.52,0,0,1-1.19.32l0.4,0.12c0.46,0.4,1.38,2.54,1.87,3s0.16,3.08-.47,3.84-0.86,2.35-1.25,2.82-0.82.32-.37,0.75a2.11,2.11,0,0,1,.37,1.4,2.07,2.07,0,0,0,.38.94c0.22,0.21,3.45,2.37,4.71,2.41C30.54,39.74,30.61,40.93,29.42,42.46Z" transform="translate(0 0)"/><path class="cls-1" d="M27.71,40.25c-0.48-.3-1-0.71-2.08-1.48a0.84,0.84,0,0,0-.79-0.22c-0.41,0,.21-0.73,0-1.3a13.53,13.53,0,0,0-.68-1.79,2.09,2.09,0,0,1,.2-1.88,26.49,26.49,0,0,0,1.37-2.64,4,4,0,0,0,.43-2.39c-0.19-.18-1.09-1.94-1.46-2.3s-0.64-.82-1-1.28l-0.1-.13-0.36.26a5.65,5.65,0,0,0-.8.77,2.18,2.18,0,0,1-1.08,0,0.69,0.69,0,0,1-.59-0.72c0-.35-0.23-0.25-0.23-0.25a32,32,0,0,0-3.72.58,17.49,17.49,0,0,0-1.37,2.06s-0.26,6.89.27,7.4S19.34,40.7,20,41.3c0.62,0.83,5.22.76,5.92,0.72S28.47,40.73,27.71,40.25Zm-2.8.43c-0.21.39-2-.26-2.11-0.31a8.51,8.51,0,0,1-1.82-2c-0.12-.3-2.16-4.11-2.32-4.59s-0.39-3.85.27-4.27A4,4,0,0,1,21,29.18a1.72,1.72,0,0,1,1,1.34,30.16,30.16,0,0,1-.94,3.53c-0.12.25-.47,0.68-0.85-0.62a3.19,3.19,0,0,1,.05-1.16c0.06-.09.23,0,0.33,0.08a5,5,0,0,1,.18.88,11.49,11.49,0,0,0,.69-2.32,1.1,1.1,0,0,0-.66-0.82,1.52,1.52,0,0,0-1.34.13c-0.31.28,0,2.15-.08,2.4a3.61,3.61,0,0,0,.18,1.56C20,35,21.94,38.79,22,38.84s1.77,1.5,1.2.21c-0.13-.29-0.86-1.92-0.92-2.09a20.83,20.83,0,0,1-.44-3c0-.21,1.74-4.71,1.71-4.79s0.51-.36-1-1a5.15,5.15,0,0,0-2.51-.23C19.83,28,19.37,28,19,28.16s-1.24.26-1.34,0.36A3,3,0,0,0,17.28,30a18.52,18.52,0,0,0,.19,3.36,14,14,0,0,0,2.19,4.78c0.45,0.64.28,0.88,0,.56a4.72,4.72,0,0,0-.61-0.39,20.88,20.88,0,0,1-1.26-2,8.1,8.1,0,0,1-1.19-2.58c-0.08-.52-0.3-3.2-0.3-3.2l0.41-2.7A1.43,1.43,0,0,1,18,27.24c0.56-.14,1.82-0.5,1.87-0.46,0.56,0.4,2.45,1,2.87.29s1.66,1.15,2,1.55S22.9,33,22.6,33.72a10.58,10.58,0,0,0,.22,2.38c0,0.25,1.2,3.4,1.64,3.68A0.81,0.81,0,0,1,24.91,40.68Z" transform="translate(0 0)"/></svg>