<?xml version="1.0" encoding="utf-8"?>
<!-- Generator: Adobe Illustrator 19.2.1, SVG Export Plug-In . SVG Version: 6.00 Build 0)  -->
<svg version="1.1" id="Layer_1" xmlns="http://www.w3.org/2000/svg" xmlns:xlink="http://www.w3.org/1999/xlink" x="0px" y="0px"
	 viewBox="0 0 118 118" style="enable-background:new 0 0 118 118;" xml:space="preserve">
<style type="text/css">
	.st0{fill:#C08C16;}
	.st1{fill:#FFFFFF;}
</style>
<g>
	<path class="st0" d="M59,115C28.1,115,3,89.9,3,59C3,28.1,28.1,3,59,3c30.9,0,56,25.1,56,56C115,89.9,89.9,115,59,115z"/>
	<path class="st1" d="M59,6c29.2,0,53,23.8,53,53s-23.8,53-53,53S6,88.2,6,59S29.8,6,59,6 M59,0C26.4,0,0,26.4,0,59s26.4,59,59,59
		s59-26.4,59-59S91.6,0,59,0L59,0z"/>
</g>
<g>
	<path class="st1" d="M27.1,84.2v-8.3c0.2-1.3,1-2.7,2.4-4.2c1.4-1.5,3-3,4.8-4.6c1.8-1.6,3.8-3.2,5.9-4.9c2.1-1.7,4-3.3,5.7-5
		c1.8-1.7,3.2-3.3,4.4-4.9c1.2-1.6,1.8-3.2,1.8-4.8c0-2.2-0.7-4-2-5.2c-1.3-1.2-3.2-1.8-5.5-1.8c-2.5,0-4.5,0.7-6,2.2
		c-1.5,1.5-2.5,3.4-3.1,5.7l-8.1-1.8c0.3-2,0.9-3.8,1.9-5.5c1-1.7,2.2-3.1,3.8-4.4c1.5-1.2,3.3-2.2,5.3-2.9c2-0.7,4.1-1.1,6.4-1.1
		s4.4,0.3,6.3,0.9c2,0.6,3.7,1.6,5.2,2.8c1.5,1.2,2.7,2.8,3.6,4.6c0.9,1.8,1.3,3.9,1.3,6.3c0,3.1-0.7,5.8-2,8.1
		c-1.3,2.3-3.1,4.5-5.3,6.7c-2.2,2.1-4.8,4.3-7.7,6.5c-2.9,2.2-5.9,4.7-9,7.6h23.9v7.8H27.1z"/>
	<path class="st1" d="M71.6,72.2l-3.7-3.7l8.8-8.8l-8.8-8.8l3.7-3.6l8.8,8.7l8.8-8.7l3.7,3.6l-8.8,8.8l8.8,8.8l-3.7,3.7l-8.8-8.8
		L71.6,72.2z"/>
</g>
</svg>
