<?xml version="1.0" encoding="utf-8"?>
<!-- Generator: Adobe Illustrator 19.2.1, SVG Export Plug-In . SVG Version: 6.00 Build 0)  -->
<svg version="1.1" id="Layer_1" xmlns="http://www.w3.org/2000/svg" xmlns:xlink="http://www.w3.org/1999/xlink" x="0px" y="0px"
	 viewBox="0 0 118 118" style="enable-background:new 0 0 118 118;" xml:space="preserve">
<style type="text/css">
	.st0{fill:#C08C16;}
	.st1{fill:#FFFFFF;}
</style>
<g>
	<path class="st0" d="M59,115C28.1,115,3,89.9,3,59C3,28.1,28.1,3,59,3c30.9,0,56,25.1,56,56C115,89.9,89.9,115,59,115z"/>
	<path class="st1" d="M59,6c29.2,0,53,23.8,53,53s-23.8,53-53,53S6,88.2,6,59S29.8,6,59,6 M59,0C26.4,0,0,26.4,0,59s26.4,59,59,59
		s59-26.4,59-59S91.6,0,59,0L59,0z"/>
</g>
<g>
	<path class="st1" d="M33.4,84.2v-7h7.8V42.3h-9v-5.9c2.3-0.1,4.5-0.4,6.4-1c1.9-0.6,3.5-1.4,4.6-2.5h7.1v44.2h7.8v7H33.4z"/>
	<path class="st1" d="M71.6,72.2l-3.7-3.7l8.8-8.8l-8.8-8.8l3.7-3.6l8.8,8.7l8.8-8.7l3.7,3.6l-8.8,8.8l8.8,8.8l-3.7,3.7l-8.8-8.8
		L71.6,72.2z"/>
</g>
</svg>
