<?xml version="1.0" encoding="utf-8"?>
<!-- Generator: Adobe Illustrator 19.2.1, SVG Export Plug-In . SVG Version: 6.00 Build 0)  -->
<svg version="1.1" id="Layer_1" xmlns="http://www.w3.org/2000/svg" xmlns:xlink="http://www.w3.org/1999/xlink" x="0px" y="0px"
	 viewBox="0 0 118 118" style="enable-background:new 0 0 118 118;" xml:space="preserve">
<style type="text/css">
	.st0{fill:#C08C16;}
	.st1{fill:#FFFFFF;}
</style>
<g>
	<path class="st0" d="M59,115C28.1,115,3,89.9,3,59C3,28.1,28.1,3,59,3c30.9,0,56,25.1,56,56C115,89.9,89.9,115,59,115z"/>
	<path class="st1" d="M59,6c29.2,0,53,23.8,53,53s-23.8,53-53,53S6,88.2,6,59S29.8,6,59,6 M59,0C26.4,0,0,26.4,0,59s26.4,59,59,59
		s59-26.4,59-59S91.6,0,59,0L59,0z"/>
</g>
<g>
	<path class="st1" d="M32.1,63.2v-4.8H37V37.7h-5.5v-4c1.5-0.1,2.9-0.3,4.2-0.6c1.3-0.3,2.3-0.8,3.1-1.5h4.8v26.9h5v4.8H32.1z
		 M69.8,31.5h6.3L46.5,84.9h-6.4L69.8,31.5z M64.3,84.2V79c0.1-0.8,0.7-1.7,1.5-2.6c0.9-0.9,1.9-1.9,3.2-2.8c1.2-1,2.5-2,3.9-3
		c1.4-1,2.6-2,3.8-3c1.2-1,2.1-2,2.9-2.9c0.8-1,1.2-1.9,1.2-2.7c0-2.8-1.6-4.2-4.8-4.2c-1.7,0-3,0.5-4,1.4c-1,0.9-1.7,2.1-2.1,3.5
		l-5.4-1.1c0.2-1.3,0.6-2.5,1.3-3.6s1.5-2,2.5-2.8s2.2-1.4,3.5-1.9c1.3-0.5,2.7-0.7,4.3-0.7c1.5,0,2.9,0.2,4.2,0.6
		c1.3,0.4,2.5,1,3.5,1.7c1,0.8,1.8,1.7,2.4,2.8c0.6,1.1,0.9,2.4,0.9,3.9c0,1.9-0.4,3.5-1.3,5c-0.9,1.4-2.1,2.8-3.5,4.1
		c-1.4,1.3-3.1,2.6-5,3.9c-1.9,1.3-3.8,2.8-5.8,4.5h15.6v5.2H64.3z"/>
</g>
</svg>
