<?xml version="1.0" encoding="utf-8"?>
<!-- Generator: Adobe Illustrator 19.2.1, SVG Export Plug-In . SVG Version: 6.00 Build 0)  -->
<svg version="1.1" id="Layer_1" xmlns="http://www.w3.org/2000/svg" xmlns:xlink="http://www.w3.org/1999/xlink" x="0px" y="0px"
	 viewBox="0 0 118 118" style="enable-background:new 0 0 118 118;" xml:space="preserve">
<style type="text/css">
	.st0{fill:#C08C16;}
	.st1{fill:#FFFFFF;}
</style>
<g>
	<path class="st0" d="M59,114.8c-30.9,0-56-25.1-56-55.9S28.1,3,59,3c30.9,0,56,25.1,56,55.9S89.9,114.8,59,114.8z"/>
	<path class="st1" d="M59,6c29.2,0,53,23.7,53,52.9s-23.8,52.9-53,52.9S6,88,6,58.9S29.8,6,59,6 M59,0C26.4,0,0,26.4,0,58.9
		s26.4,58.9,59,58.9s59-26.4,59-58.9S91.6,0,59,0L59,0z"/>
</g>
</svg>
